# xmcd
#
# Track frame offsets:
# 150
# 14687
# 31962
# 46262
# 63525
# 80375
# 101300
# 120275
# 144762
# 160712
# 176387
#
# Disc length: 2719 seconds
#
#
# Revision: 0
# Processed by: cddbd v1.5.1PL0 Copyright (c) Steve Scherf et al.
# Submitted via: FreeRIP 2.90 
#
DISCID=7a0a9d0b
DTITLE=Sumlin, Hubert - Hubert Sumlin . Blues Classics
DYEAR=1996
DGENRE=Blues
TTITLE0=Love You, Woman
TTITLE1=When I feel better
TTITLE2=I Love
TTITLE3=Hubert's Blues
TTITLE4=Blues On Blues
TTITLE5=My baby Is Gone
TTITLE6=Lonesome Blues
TTITLE7=Blues In My Heart
TTITLE8=Blues For Chester
TTITLE9=Jammin' The Blues
TTITLE10=Gamblin' Woman
EXTD=
EXTT0=
EXTT1=
EXTT2=
EXTT3=
EXTT4=
EXTT5=
EXTT6=
EXTT7=
EXTT8=
EXTT9=
EXTT10=
PLAYORDER=
